<?xml version="1.0" encoding="utf-8"?>
<!-- Generator: Adobe Illustrator 17.1.0, SVG Export Plug-In . SVG Version: 6.00 Build 0)  -->
<!DOCTYPE svg PUBLIC "-//W3C//DTD SVG 1.1//EN" "http://www.w3.org/Graphics/SVG/1.1/DTD/svg11.dtd">
<svg version="1.1" id="Layer_1" xmlns="http://www.w3.org/2000/svg" xmlns:xlink="http://www.w3.org/1999/xlink" x="0px" y="0px"
	 viewBox="0 0 50 50" enable-background="new 0 0 50 50" xml:space="preserve">
<path fill="#4064B5" d="M38.3,10.7H11.7c-2.4,0-4.5,2.4-4.5,4.8V31c0,2.8,2.1,4.8,4.5,4.8h26.6c2.4,0,4.5-2.1,4.5-4.8V15.5
	C42.8,13.1,40.7,10.7,38.3,10.7z M9.3,17.2l7.9,6.2l-7.9,6.2V17.2z M40.7,31c0,1.4-1,2.4-2.1,2.4H11.7c-1.4,0-2.4-1-2.4-2.4l8.6-6.9
	l4.8,3.8c0.7,0.3,1.4,0.7,2.1,0.7s1.4-0.3,2.1-0.7l4.8-3.8L40.7,31z M40.7,29.7l-7.9-6.2l7.9-6.2V29.7z M26.2,26.9
	c-0.3,0.3-0.7,0.7-1.4,0.7s-0.7-0.3-1-0.7L9.3,15.5c0-1.4,1-2.4,2.1-2.4h26.6c1.4,0,2.1,1,2.1,2.4L26.2,26.9z"/>
</svg>
