<?xml version="1.0" encoding="utf-8"?>
<!-- Generator: Adobe Illustrator 17.1.0, SVG Export Plug-In . SVG Version: 6.00 Build 0)  -->
<!DOCTYPE svg PUBLIC "-//W3C//DTD SVG 1.1//EN" "http://www.w3.org/Graphics/SVG/1.1/DTD/svg11.dtd">
<svg version="1.1" id="Layer_1" xmlns="http://www.w3.org/2000/svg" xmlns:xlink="http://www.w3.org/1999/xlink" x="0px" y="0px"
	 viewBox="0 0 14.5 11.5" enable-background="new 0 0 14.5 11.5" xml:space="preserve">
<path fill="#B3B3B3" d="M11.1,1.6H3.4C2.7,1.6,2.1,2.3,2.1,3v4.5c0,0.8,0.6,1.4,1.3,1.4h7.7c0.7,0,1.3-0.6,1.3-1.4V3
	C12.4,2.3,11.8,1.6,11.1,1.6z M2.7,3.5L5,5.3L2.7,7.1L2.7,3.5z M11.8,7.5c0,0.4-0.3,0.7-0.6,0.7H3.4C3,8.2,2.7,7.9,2.7,7.5l2.5-2
	l1.4,1.1C6.8,6.7,7,6.8,7.2,6.8c0.2,0,0.4-0.1,0.6-0.2l1.4-1.1L11.8,7.5z M11.8,7.1L9.5,5.3l2.3-1.8V7.1z M7.6,6.3
	C7.5,6.4,7.4,6.5,7.2,6.5S7,6.4,6.9,6.3L2.7,3c0-0.4,0.3-0.7,0.6-0.7h7.7c0.4,0,0.6,0.3,0.6,0.7L7.6,6.3z"/>
</svg>
