<?xml version="1.0" encoding="utf-8"?>
<!-- Generator: Adobe Illustrator 17.1.0, SVG Export Plug-In . SVG Version: 6.00 Build 0)  -->
<!DOCTYPE svg PUBLIC "-//W3C//DTD SVG 1.1//EN" "http://www.w3.org/Graphics/SVG/1.1/DTD/svg11.dtd">
<svg version="1.1" id="Layer_1" xmlns="http://www.w3.org/2000/svg" xmlns:xlink="http://www.w3.org/1999/xlink" x="0px" y="0px"
	 viewBox="0 0 14.2 11.6" enable-background="new 0 0 14.2 11.6" xml:space="preserve">
<path fill="#B3B3B3" d="M7.1,0.8c-2.7,0-5,2.2-5,5s2.2,5,5,5s5-2.2,5-5S9.8,0.8,7.1,0.8z M10.1,8.7C9.7,9.1,9.2,9.4,8.7,9.6
	C8.6,9.7,8.5,9.7,8.3,9.8V9c0-0.4-0.1-0.7-0.4-0.9c0.2,0,0.3,0,0.5-0.1C8.5,8.1,8.7,8,8.9,8C9,7.9,9.1,7.9,9.3,7.8s0.2-0.2,0.4-0.3
	c0.1-0.1,0.2-0.3,0.3-0.4c0.1-0.2,0.1-0.3,0.2-0.6c0-0.2,0.1-0.5,0.1-0.7c0-0.5-0.2-0.9-0.5-1.3c0.1-0.4,0.1-0.8,0-1.3l-0.1,0
	c-0.1,0-0.2,0-0.5,0.1C8.8,3.4,8.6,3.6,8.3,3.8C7.9,3.6,7.5,3.6,7.1,3.6c-0.4,0-0.8,0.1-1.2,0.2C5.8,3.6,5.6,3.5,5.4,3.5
	C5.3,3.4,5.2,3.3,5.1,3.3c-0.1,0-0.2,0-0.3-0.1c-0.1,0-0.1,0-0.2,0c0,0,0,0,0,0c-0.2,0.5-0.2,0.9,0,1.3C4.2,4.9,4.1,5.3,4.1,5.8
	c0,0.3,0,0.5,0.1,0.7c0,0.2,0.1,0.4,0.2,0.6c0.1,0.2,0.2,0.3,0.3,0.4C4.7,7.6,4.9,7.7,5,7.8S5.2,7.9,5.4,8s0.3,0.1,0.4,0.1
	c0.1,0,0.3,0.1,0.5,0.1C6,8.3,5.9,8.6,5.9,9v0.8c-0.1,0-0.3-0.1-0.4-0.2C5,9.4,4.5,9.1,4.2,8.7C3.8,8.4,3.5,7.9,3.3,7.4
	C3,6.9,2.9,6.4,2.9,5.8S3,4.7,3.3,4.2c0.2-0.5,0.5-0.9,0.9-1.3S5,2.2,5.5,1.9C6,1.7,6.5,1.6,7.1,1.6c0.6,0,1.1,0.1,1.6,0.3
	c0.5,0.2,0.9,0.5,1.3,0.9s0.7,0.8,0.9,1.3c0.2,0.5,0.3,1.1,0.3,1.6s-0.1,1.1-0.3,1.6C10.7,7.9,10.4,8.4,10.1,8.7L10.1,8.7z"/>
</svg>
