<?xml version="1.0" encoding="utf-8"?>
<!-- Generator: Adobe Illustrator 17.1.0, SVG Export Plug-In . SVG Version: 6.00 Build 0)  -->
<!DOCTYPE svg PUBLIC "-//W3C//DTD SVG 1.1//EN" "http://www.w3.org/Graphics/SVG/1.1/DTD/svg11.dtd">
<svg version="1.1" id="Layer_1" xmlns="http://www.w3.org/2000/svg" xmlns:xlink="http://www.w3.org/1999/xlink" x="0px" y="0px"
	 viewBox="0 0 50 50" enable-background="new 0 0 50 50" xml:space="preserve">
<path fill="#4064B5" d="M25,7.4C15.5,7.4,7.4,15.1,7.4,25S15.1,42.6,25,42.6S42.6,34.9,42.6,25S34.5,7.4,25,7.4z M35.6,35.2
	c-1.4,1.4-3.2,2.5-4.9,3.2c-0.4,0.4-0.7,0.4-1.4,0.7v-2.8c0-1.4-0.4-2.5-1.4-3.2c0.7,0,1.1,0,1.8-0.4c0.4,0.4,1.1,0,1.8,0
	c0.4-0.4,0.7-0.4,1.4-0.7c0.7-0.4,0.7-0.7,1.4-1.1c0.4-0.4,0.7-1.1,1.1-1.4c0.4-0.7,0.4-1.1,0.7-2.1c0-0.7,0.4-1.8,0.4-2.5
	c0-1.8-0.7-3.2-1.8-4.6c0.4-1.4,0.4-2.8,0-4.6h-0.4c-0.4,0-0.7,0-1.8,0.4c-1.4,0.4-2.1,1.1-3.2,1.8c-1.4-0.7-2.8-0.7-4.2-0.7
	s-2.8,0.4-4.2,0.7c-0.4-0.7-1.1-1.1-1.8-1.1c-0.4-0.4-0.7-0.7-1.1-0.7c-0.4,0-0.7,0-1.1-0.4c-0.4,0-0.4,0-0.7,0l0,0
	c-0.7,1.8-0.7,3.2,0,4.6c-1.4,1.4-1.8,2.8-1.8,4.6c0,1.1,0,1.8,0.4,2.5c0,0.7,0.4,1.4,0.7,2.1c0.4,0.7,0.7,1.1,1.1,1.4
	c0,0.4,0.7,0.7,1.1,1.1c0.4,0.4,0.7,0.4,1.4,0.7c0.7,0.4,1.1,0.4,1.4,0.4c0.4,0,1.1,0.4,1.8,0.4c-1.1,0.4-1.4,1.4-1.4,2.8v2.8
	c-0.4,0-1.1-0.4-1.4-0.7c-1.8-0.7-3.5-1.8-4.6-3.2c-1.4-1.1-2.5-2.8-3.2-4.6c-1.1-1.8-1.4-3.5-1.4-5.6s0.4-3.9,1.4-5.6
	c0.7-1.8,1.8-3.2,3.2-4.6c1.4-1.4,2.8-2.5,4.6-3.5c1.8-0.7,3.5-1.1,5.6-1.1s3.9,0.4,5.6,1.1c1.8,0.7,3.2,1.8,4.6,3.2
	c1.4,1.4,2.5,2.8,3.2,4.6c0.7,1.8,1.1,3.9,1.1,5.6s-0.4,3.9-1.1,5.6C37.7,32.4,36.6,34.2,35.6,35.2L35.6,35.2z"/>
</svg>
