<?xml version="1.0" encoding="utf-8"?>
<!-- Generator: Adobe Illustrator 17.1.0, SVG Export Plug-In . SVG Version: 6.00 Build 0)  -->
<!DOCTYPE svg PUBLIC "-//W3C//DTD SVG 1.1//EN" "http://www.w3.org/Graphics/SVG/1.1/DTD/svg11.dtd">
<svg version="1.1" id="Layer_1" xmlns="http://www.w3.org/2000/svg" xmlns:xlink="http://www.w3.org/1999/xlink" x="0px" y="0px"
	 viewBox="0 0 50 50" enable-background="new 0 0 50 50" xml:space="preserve">
<path fill="#4064B5" d="M39.9,2.9H10.6c-4.3,0-7.7,3.4-7.7,7.2v29.3c0,4.3,3.4,7.2,7.2,7.2h29.3c4.3,0,7.2-3.4,7.2-7.2V10.1
	C47.1,6.2,43.8,2.9,39.9,2.9z M19.7,38.9h-5.8V19.7h5.8C19.7,19.7,19.7,38.9,19.7,38.9z M16.8,16.8c-1.4,0-2.9-1.4-2.9-2.9
	s1.4-2.9,2.9-2.9s2.9,1.4,2.9,2.9S18.3,16.8,16.8,16.8z M38.9,38.9h-5.8V27.9c0-1.4-1.4-2.9-2.9-2.9c-1.4,0-2.4,1.4-2.4,2.9v11.1
	h-5.8V19.7h5.8v3.4c1-1.4,2.9-3.4,4.8-3.4c3.4,0,6.2,2.9,6.2,6.7V38.9z"/>
</svg>
