<?xml version="1.0" encoding="utf-8"?>
<!-- Generator: Adobe Illustrator 17.1.0, SVG Export Plug-In . SVG Version: 6.00 Build 0)  -->
<!DOCTYPE svg PUBLIC "-//W3C//DTD SVG 1.1//EN" "http://www.w3.org/Graphics/SVG/1.1/DTD/svg11.dtd">
<svg version="1.1" id="Layer_1" xmlns="http://www.w3.org/2000/svg" xmlns:xlink="http://www.w3.org/1999/xlink" x="0px" y="0px"
	 viewBox="0 0 10.4 9.2" enable-background="new 0 0 10.4 9.2" xml:space="preserve">
<path fill="#B3B3B3" d="M8.3,0H2.2C1.3,0,0.6,0.7,0.6,1.5v6.1c0,0.9,0.7,1.5,1.5,1.5h6.1c0.9,0,1.5-0.7,1.5-1.5V1.5
	C9.8,0.7,9.1,0,8.3,0z M4.1,7.5H2.9v-4h1.2V7.5z M3.5,2.9c-0.3,0-0.6-0.3-0.6-0.6s0.3-0.6,0.6-0.6S4.1,2,4.1,2.3S3.8,2.9,3.5,2.9z
	 M8.1,7.5H6.9V5.2c0-0.3-0.3-0.6-0.6-0.6C6,4.6,5.8,4.9,5.8,5.2v2.3H4.6v-4h1.2v0.7c0.2-0.3,0.6-0.7,1-0.7c0.7,0,1.3,0.6,1.3,1.4
	V7.5z"/>
</svg>
