<?xml version="1.0" encoding="utf-8"?>
<!-- Generator: Adobe Illustrator 17.1.0, SVG Export Plug-In . SVG Version: 6.00 Build 0)  -->
<!DOCTYPE svg PUBLIC "-//W3C//DTD SVG 1.1//EN" "http://www.w3.org/Graphics/SVG/1.1/DTD/svg11.dtd">
<svg version="1.1" id="Layer_1" xmlns="http://www.w3.org/2000/svg" xmlns:xlink="http://www.w3.org/1999/xlink" x="0px" y="0px"
	 viewBox="0 0 960 560" enable-background="new 0 0 960 560" xml:space="preserve">
<path fill="#A5A5A5" d="M760,106.3c-20.6,9.2-42.8,15.3-66,18c23.7-14.2,41.9-36.8,50.5-63.5c-22.2,13.1-46.8,22.7-73,27.9
	c-21-22.3-50.9-36.2-83.9-36.2c-63.4,0-114.8,51.4-114.8,114.8c0,9,1,17.7,3,26.1c-95.4-4.7-180.1-50.4-236.8-120
	c-9.8,17-15.5,36.7-15.5,57.8c0,39.8,20.2,75,51.1,95.6c-18.8-0.5-36.5-5.8-52.1-14.3c0,0.4,0,1,0,1.4c0,55.7,39.6,102,92.2,112.7
	c-9.6,2.6-19.8,4-30.3,4c-7.4,0-14.5-0.8-21.7-2.1c14.7,45.6,57.1,78.9,107.3,79.7c-39.3,30.8-88.8,49.2-142.7,49.2
	c-9.3,0-18.4-0.5-27.5-1.6c51,32.8,111.3,51.7,176.2,51.7c211.3,0,326.9-175.1,326.9-326.9c0-5-0.1-10-0.3-14.9
	C725.1,149.6,744.6,129.4,760,106.3L760,106.3z"/>
</svg>
