<?xml version="1.0" encoding="utf-8"?>
<!-- Generator: Adobe Illustrator 17.1.0, SVG Export Plug-In . SVG Version: 6.00 Build 0)  -->
<!DOCTYPE svg PUBLIC "-//W3C//DTD SVG 1.1//EN" "http://www.w3.org/Graphics/SVG/1.1/DTD/svg11.dtd">
<svg version="1.1" id="Layer_1" xmlns="http://www.w3.org/2000/svg" xmlns:xlink="http://www.w3.org/1999/xlink" x="0px" y="0px"
	 viewBox="0 0 960 560" enable-background="new 0 0 960 560" xml:space="preserve">
<g>
	<line opacity="0.3" fill="none" stroke="#449FDB" enable-background="new    " x1="217.5" y1="0" x2="217.5" y2="560"/>
	<line fill="none" stroke="#449FDB" x1="235" y1="0" x2="235" y2="560"/>
	<line opacity="0.3" fill="none" stroke="#449FDB" enable-background="new    " x1="252.5" y1="0" x2="252.5" y2="560"/>
	<line fill="none" stroke="#449FDB" x1="270" y1="0" x2="270" y2="560"/>
	<line opacity="0.3" fill="none" stroke="#449FDB" enable-background="new    " x1="287.5" y1="0" x2="287.5" y2="560"/>
	<line fill="none" stroke="#449FDB" x1="305" y1="0" x2="305" y2="560"/>
	<line opacity="0.3" fill="none" stroke="#449FDB" enable-background="new    " x1="322.5" y1="0" x2="322.5" y2="560"/>
	<line fill="none" stroke="#449FDB" x1="340" y1="0" x2="340" y2="560"/>
	<line opacity="0.3" fill="none" stroke="#449FDB" enable-background="new    " x1="357.5" y1="0" x2="357.5" y2="560"/>
	<line fill="none" stroke="#449FDB" x1="375" y1="0" x2="375" y2="560"/>
	<line opacity="0.3" fill="none" stroke="#449FDB" enable-background="new    " x1="392.5" y1="0" x2="392.5" y2="560"/>
	<line fill="none" stroke="#449FDB" x1="410" y1="0" x2="410" y2="560"/>
	<line opacity="0.3" fill="none" stroke="#449FDB" enable-background="new    " x1="427.5" y1="0" x2="427.5" y2="560"/>
	<line fill="none" stroke="#449FDB" x1="445" y1="0" x2="445" y2="560"/>
	<line opacity="0.3" fill="none" stroke="#449FDB" enable-background="new    " x1="462.5" y1="0" x2="462.5" y2="560"/>
	<line fill="none" stroke="#449FDB" x1="480" y1="0" x2="480" y2="560"/>
	<line opacity="0.3" fill="none" stroke="#449FDB" enable-background="new    " x1="497.5" y1="0" x2="497.5" y2="560"/>
	<line fill="none" stroke="#449FDB" x1="515" y1="0" x2="515" y2="560"/>
	<line opacity="0.3" fill="none" stroke="#449FDB" enable-background="new    " x1="532.5" y1="0" x2="532.5" y2="560"/>
	<line fill="none" stroke="#449FDB" x1="550" y1="0" x2="550" y2="560"/>
	<line opacity="0.3" fill="none" stroke="#449FDB" enable-background="new    " x1="567.5" y1="0" x2="567.5" y2="560"/>
	<line fill="none" stroke="#449FDB" x1="585" y1="0" x2="585" y2="560"/>
	<line opacity="0.3" fill="none" stroke="#449FDB" enable-background="new    " x1="602.5" y1="0" x2="602.5" y2="560"/>
	<line fill="none" stroke="#449FDB" x1="620" y1="0" x2="620" y2="560"/>
	<line opacity="0.3" fill="none" stroke="#449FDB" enable-background="new    " x1="637.5" y1="0" x2="637.5" y2="560"/>
	<line fill="none" stroke="#449FDB" x1="655" y1="0" x2="655" y2="560"/>
	<line opacity="0.3" fill="none" stroke="#449FDB" enable-background="new    " x1="672.5" y1="0" x2="672.5" y2="560"/>
	<line fill="none" stroke="#449FDB" x1="690" y1="0" x2="690" y2="560"/>
	<line opacity="0.3" fill="none" stroke="#449FDB" enable-background="new    " x1="707.5" y1="0" x2="707.5" y2="560"/>
	<line fill="none" stroke="#449FDB" x1="725" y1="0" x2="725" y2="560"/>
	<line opacity="0.3" fill="none" stroke="#449FDB" enable-background="new    " x1="742.5" y1="0" x2="742.5" y2="560"/>
	<line opacity="0.3" fill="none" stroke="#449FDB" enable-background="new    " x1="200" y1="17.5" x2="760" y2="17.5"/>
	<line fill="none" stroke="#449FDB" x1="200" y1="35" x2="760" y2="35"/>
	<line opacity="0.3" fill="none" stroke="#449FDB" enable-background="new    " x1="200" y1="52.5" x2="760" y2="52.5"/>
	<line fill="none" stroke="#449FDB" x1="200" y1="70" x2="760" y2="70"/>
	<line opacity="0.3" fill="none" stroke="#449FDB" enable-background="new    " x1="200" y1="87.5" x2="760" y2="87.5"/>
	<line fill="none" stroke="#449FDB" x1="200" y1="105" x2="760" y2="105"/>
	<line opacity="0.3" fill="none" stroke="#449FDB" enable-background="new    " x1="200" y1="122.5" x2="760" y2="122.5"/>
	<line fill="none" stroke="#449FDB" x1="200" y1="140" x2="760" y2="140"/>
	<line opacity="0.3" fill="none" stroke="#449FDB" enable-background="new    " x1="200" y1="157.5" x2="760" y2="157.5"/>
	<line fill="none" stroke="#449FDB" x1="200" y1="175" x2="760" y2="175"/>
	<line opacity="0.3" fill="none" stroke="#449FDB" enable-background="new    " x1="200" y1="192.5" x2="760" y2="192.5"/>
	<line fill="none" stroke="#449FDB" x1="200" y1="210" x2="760" y2="210"/>
	<line opacity="0.3" fill="none" stroke="#449FDB" enable-background="new    " x1="200" y1="227.5" x2="760" y2="227.5"/>
	<line fill="none" stroke="#449FDB" x1="200" y1="245" x2="760" y2="245"/>
	<line opacity="0.3" fill="none" stroke="#449FDB" enable-background="new    " x1="200" y1="262.5" x2="760" y2="262.5"/>
	<line fill="none" stroke="#449FDB" x1="200" y1="280" x2="760" y2="280"/>
	<line opacity="0.3" fill="none" stroke="#449FDB" enable-background="new    " x1="200" y1="297.5" x2="760" y2="297.5"/>
	<line fill="none" stroke="#449FDB" x1="200" y1="315" x2="760" y2="315"/>
	<line opacity="0.3" fill="none" stroke="#449FDB" enable-background="new    " x1="200" y1="332.5" x2="760" y2="332.5"/>
	<line fill="none" stroke="#449FDB" x1="200" y1="350" x2="760" y2="350"/>
	<line opacity="0.3" fill="none" stroke="#449FDB" enable-background="new    " x1="200" y1="367.5" x2="760" y2="367.5"/>
	<line fill="none" stroke="#449FDB" x1="200" y1="385" x2="760" y2="385"/>
	<line opacity="0.3" fill="none" stroke="#449FDB" enable-background="new    " x1="200" y1="402.5" x2="760" y2="402.5"/>
	<line fill="none" stroke="#449FDB" x1="200" y1="420" x2="760" y2="420"/>
	<line opacity="0.3" fill="none" stroke="#449FDB" enable-background="new    " x1="200" y1="437.5" x2="760" y2="437.5"/>
	<line fill="none" stroke="#449FDB" x1="200" y1="455" x2="760" y2="455"/>
	<line opacity="0.3" fill="none" stroke="#449FDB" enable-background="new    " x1="200" y1="472.5" x2="760" y2="472.5"/>
	<line fill="none" stroke="#449FDB" x1="200" y1="490" x2="760" y2="490"/>
	<line opacity="0.3" fill="none" stroke="#449FDB" enable-background="new    " x1="200" y1="507.5" x2="760" y2="507.5"/>
	<line fill="none" stroke="#449FDB" x1="200" y1="525" x2="760" y2="525"/>
	<line opacity="0.3" fill="none" stroke="#449FDB" enable-background="new    " x1="200" y1="542.5" x2="760" y2="542.5"/>
</g>
<path fill="#A5A5A5" d="M760,106.3c-20.6,9.2-42.8,15.3-66,18c23.7-14.2,41.9-36.8,50.5-63.5c-22.2,13.1-46.8,22.7-73,27.9
	c-21-22.3-50.9-36.2-83.9-36.2c-63.4,0-114.8,51.4-114.8,114.8c0,9,1,17.7,3,26.1C380.4,188.7,295.7,143,239,73.4
	c-9.8,17-15.5,36.7-15.5,57.8c0,39.8,20.2,75,51.1,95.6c-18.8-0.5-36.5-5.8-52.1-14.3c0,0.4,0,1,0,1.4c0,55.7,39.6,102,92.2,112.7
	c-9.6,2.6-19.8,4-30.3,4c-7.4,0-14.5-0.8-21.7-2.1c14.7,45.6,57.1,78.9,107.3,79.7c-39.3,30.8-88.8,49.2-142.7,49.2
	c-9.3,0-18.4-0.5-27.5-1.6c51,32.8,111.3,51.7,176.2,51.7c211.3,0,326.9-175.1,326.9-326.9c0-5-0.1-10-0.3-14.9
	C725.1,149.6,744.6,129.4,760,106.3L760,106.3z"/>
</svg>
